# xmcd
#
# Track frame offsets:
#	150
#	17531
#	39312
#	56320
#	71165
#	84982
#	100860
#	115317
#	131003
#	147721
#	162588
#	180976
#
# Disc length: 2657 seconds
#
# Revision: 1
# Processed by: cddbd v1.5.2PL0 Copyright (c) Steve Scherf et al.
# Submitted via: audiograbber 1.83.01
#
DISCID=9f0a5f0c
DTITLE=Lady Antebellum - Golden
DYEAR=2013
DGENRE=Country
TTITLE0=Get To Me
TTITLE1=Goodbye Town
TTITLE2=Nothin' Like The First Time
TTITLE3=Downtown
TTITLE4=Better Off Now (That You're Gone)
TTITLE5=It Ain't Pretty
TTITLE6=Can't Stand The Rain
TTITLE7=Golden
TTITLE8=Long Teenage Goodbye
TTITLE9=All For Love
TTITLE10=Better Man
TTITLE11=Generation Away
EXTD=
EXTT0=
EXTT1=
EXTT2=
EXTT3=
EXTT4=
EXTT5=
EXTT6=
EXTT7=
EXTT8=
EXTT9=
EXTT10=
EXTT11=
PLAYORDER=
